<svg width="16" height="16" viewBox="0 0 16 16" fill="none" xmlns="http://www.w3.org/2000/svg">
<g id="size=16">
<g id="Path">
<path d="M9.41344 10.8272C9.02291 10.4366 9.02291 9.80347 9.41344 9.41295L9.41815 9.40824C9.80868 9.01771 10.4418 9.01771 10.8324 9.40824C11.2229 9.79876 11.2229 10.4319 10.8324 10.8224L10.8277 10.8272C10.4371 11.2177 9.80396 11.2177 9.41344 10.8272Z" fill="#000001"/>
<path d="M6.93856 5.87742C6.64567 5.58452 6.1708 5.58452 5.8779 5.87742C5.58501 6.17031 5.58501 6.64518 5.8779 6.93808L7.64567 8.70584C7.93856 8.99874 8.41344 8.99874 8.70633 8.70584C8.99922 8.41295 8.99922 7.93808 8.70633 7.64518L6.93856 5.87742Z" fill="#000001"/>
<path fill-rule="evenodd" clip-rule="evenodd" d="M1.74819 12.0003L1.74819 4.00032C1.74819 2.75767 2.75556 1.75031 3.99821 1.75032L11.9981 1.75041C13.2407 1.75042 14.2481 2.75778 14.2481 4.00041L14.2481 12.0002C14.2481 13.2428 13.2407 14.2502 11.9981 14.2502L3.99821 14.2503C2.75556 14.2503 1.74819 13.2429 1.74819 12.0003ZM3.24819 4.00032L3.24819 12.0003C3.24819 12.4145 3.58398 12.7503 3.9982 12.7503L11.9981 12.7502C12.4123 12.7502 12.7481 12.4144 12.7481 12.0002L12.7481 4.00041C12.7481 3.5862 12.4123 3.25041 11.9981 3.25041L3.99819 3.25032C3.58398 3.25032 3.24819 3.58611 3.24819 4.00032Z" fill="#000001"/>
</g>
</g>
</svg>
