<svg width="24" height="24" viewBox="0 0 24 24" fill="none" xmlns="http://www.w3.org/2000/svg">
<g id="size=24">
<g id="Path">
<path d="M8.46426 8.46447C8.75716 8.17157 9.23203 8.17157 9.52492 8.46447L12.7069 11.6464C12.9998 11.9393 12.9998 12.4142 12.7069 12.7071C12.414 13 11.9391 13 11.6462 12.7071L8.46426 9.52513C8.17137 9.23223 8.17137 8.75736 8.46426 8.46447Z" fill="#000001"/>
<path d="M14.1211 14.1213C13.7306 14.5118 13.7306 15.145 14.1211 15.5355C14.5116 15.9261 15.1448 15.9261 15.5353 15.5355L15.5424 15.5285C15.9329 15.1379 15.9329 14.5048 15.5424 14.1142C15.1519 13.7237 14.5187 13.7237 14.1282 14.1142L14.1211 14.1213Z" fill="#000001"/>
<path fill-rule="evenodd" clip-rule="evenodd" d="M3.4718 17.7785L3.47179 6.22203C3.47179 4.70323 4.70303 3.47201 6.22182 3.47203L17.7782 3.47215C19.297 3.47217 20.5282 4.70338 20.5281 6.22215L20.5281 17.7784C20.5281 19.2971 19.2969 20.5284 17.7782 20.5284L6.22183 20.5285C4.70304 20.5285 3.4718 19.2973 3.4718 17.7785ZM4.97179 6.22203L4.9718 17.7785C4.9718 18.4689 5.53145 19.0285 6.22181 19.0285L17.7782 19.0284C18.4685 19.0284 19.0281 18.4687 19.0281 17.7784L19.0281 6.22215C19.0281 5.5318 18.4685 4.97216 17.7782 4.97215L6.22181 4.97203C5.53145 4.97202 4.97179 5.53167 4.97179 6.22203Z" fill="#000001"/>
</g>
</g>
</svg>
