<svg width="16" height="16" viewBox="0 0 16 16" fill="none" xmlns="http://www.w3.org/2000/svg">
<g id="size=16">
<g id="Path">
<path d="M8 4C8.41421 4 8.75 4.33579 8.75 4.75V11.5858C8.75 12 8.41421 12.3358 8 12.3358C7.58579 12.3358 7.25 12 7.25 11.5858V4.75C7.25 4.33579 7.58579 4 8 4Z" fill="#000001"/>
<path fill-rule="evenodd" clip-rule="evenodd" d="M0 8C0 3.58172 3.58172 0 8 0C12.4183 0 16 3.58172 16 8C16 12.4183 12.4183 16 8 16C3.58172 16 0 12.4183 0 8ZM8 1.5C4.41015 1.5 1.5 4.41015 1.5 8C1.5 11.5899 4.41015 14.5 8 14.5C11.5899 14.5 14.5 11.5899 14.5 8C14.5 4.41015 11.5899 1.5 8 1.5Z" fill="#000001"/>
</g>
</g>
</svg>
